<svg height="30" width="30" xmlns="http://www.w3.org/2000/svg"><path d="M29.442 21.905l-6.272-4.826 4.981-2.56a.5.5 0 0 0-.227-.945l-6.122-.011 7.664-10.548a.5.5 0 0 0-.716-.684l-9.249 7.381-.449-8.378a.5.5 0 0 0-.426-.468.508.508 0 0 0-.543.324l-2.789 7.705-2.657-2.742a.501.501 0 0 0-.858.318l-.222 3.754L1.075 5.293a.5.5 0 0 0-.54.831l8.709 7.534-5.875.915a.5.5 0 0 0-.115.956l5.199 2.159-7.032 6.827a.498.498 0 0 0 .551.815l8.309-3.668-1.274 5.223a.5.5 0 0 0 .826.485l4.12-3.827 1.832 5.315c.07.203.26.337.472.337l.044-.002a.498.498 0 0 0 .45-.419l1.022-6.355 3.938 3.292a.498.498 0 0 0 .32.116h.02a.5.5 0 0 0 .436-.746l-.962-4.017 7.501 1.726c.234.055.464-.061.564-.273s.039-.468-.148-.612zm-8.479-1.997a.502.502 0 0 0-.599.604l.829 3.462-3.454-2.887a.496.496 0 1 0-.813.305l-.846 5.255-1.433-4.156a.5.5 0 0 0-.813-.203l-3.461 3.215 1.119-4.589a.501.501 0 0 0-.688-.575L4.118 23.29l5.576-5.413a.5.5 0 0 0-.156-.82l-4.258-1.77 5.185-.807a.5.5 0 0 0 .251-.872L3.94 7.747l7.86 3.7a.498.498 0 0 0 .712-.423l.199-3.357 2.422 2.5a.498.498 0 0 0 .829-.177l2.224-6.143.369 6.89a.498.498 0 0 0 .811.364l7.118-5.681-6.066 8.35a.5.5 0 0 0 .403.794l5.043.009-3.852 1.98a.5.5 0 0 0-.077.84l5.081 3.909-6.053-1.394z" fill="#ffffff"/></svg>