<svg data-name="trainer image" xmlns="http://www.w3.org/2000/svg" viewBox="0 0 407.17 402.54"><path d="M61.07 253.37c3.49-3.15 7.06-6.54 8.89-11 1.91-4.62 1.42-9.73 1.23-14.61a21.83 21.83 0 0 0-.32-3.52 24 24 0 0 0-1.33-3.73 10.34 10.34 0 0 1-.34-7 15.34 15.34 0 0 1 4-5.74c1.48-1.45 3.38-2.85 3.62-5.08.48-4.62-3.27-9.16-.76-13.67 1.08-1.94 3-3.11 4.76-4.38a16.14 16.14 0 0 0 4.49-4.82c2.5-4.21 2.78-9.17 3.37-13.92a24.64 24.64 0 0 1 5.17-12.53c1.6-2 3.42-3.86 4.9-6a32.63 32.63 0 0 0 3.56-6.67 42.2 42.2 0 0 0 2.13-7.45c.45-2.32.69-4.79 2-6.81s3.17-3.1 4.69-4.69a11.67 11.67 0 0 0 3.23-6c.43-2.57-.43-4.93-1.51-7.22s-1.69-4.49-.63-6.76c.92-2 2.86-3.22 3.94-5.1 1.19-2.08 1.49-4.5 2-6.81a52.47 52.47 0 0 1 5.45-14.05 86.13 86.13 0 0 1 18.5-22.36 81.11 81.11 0 0 1 24.95-15.56c9.67-3.61 20.14-4 30.34-3.8a188.63 188.63 0 0 1 33.16 3.56c4.07.8 9.26 2.1 11.95-2.08 1.25-1.94 1.81-4.32 2.59-6.47a68.21 68.21 0 0 1 3.07-7.14 63.51 63.51 0 0 1 8.19-12.79c3-3.57 6.82-6.63 11.44-7.8 10.17-2.59 19.55 4.15 29.5 4.78a20.53 20.53 0 0 0 7.67-.88c2.46-.79 4.64-2 7.31-1.56a19.24 19.24 0 0 1 6.79 2.94 47.51 47.51 0 0 1 5.73 4.12c7.29 6.12 13 14 18.6 21.64a289.89 289.89 0 0 1 17.73 27c2.73 4.71 5.32 9.5 7.71 14.38s4.58 9.57 7.38 14.08c5.38 8.65 12.31 16.4 16.55 25.73 2.15 4.74 3.6 9.75 5.7 14.51s4.81 9.09 6.65 13.87a27.67 27.67 0 0 1 1.59 15 39.39 39.39 0 0 1-5.84 13.63c-5.36 8.48-12.38 15.73-19.46 22.77-15.52 15.43-31.89 30-48 44.73q-12.45 11.37-24.86 22.79c-7.92 7.28-15.84 14.59-24.28 21.26a200.83 200.83 0 0 1-26.15 17.29 195.78 195.78 0 0 0-26.05 17.25c-8.37 6.69-16.15 14.06-24.24 21.07s-16.32 13.71-25 19.92a226.5 226.5 0 0 1-53.84 28.64c-10.29 3.77-20.83 6.83-31.39 9.77-10.34 2.88-20.87 5.32-31.6 6.14a94.58 94.58 0 0 1-32.09-2.85 40.74 40.74 0 0 1-13.36-5.85 28.17 28.17 0 0 1-8.48-10.41 84.77 84.77 0 0 1-8.84-29.6 72.79 72.79 0 0 1 3.76-31c6.3-18.14 18.17-33.76 31.33-47.51 7.27-7.55 14.99-14.64 22.75-21.65z" fill="#f20c49"/><path d="M58.16 252.65c3.49-3.15 7.07-6.54 8.89-11 1.91-4.62 1.42-9.74 1.24-14.61a21.85 21.85 0 0 0-.33-3.52 23.27 23.27 0 0 0-1.32-3.73 10.25 10.25 0 0 1-.34-7 15.38 15.38 0 0 1 4-5.73c1.48-1.46 3.38-2.86 3.61-5.09.49-4.62-3.27-9.16-.76-13.67 1.08-1.94 3-3.11 4.77-4.37a16.1 16.1 0 0 0 4.48-4.82c2.51-4.22 2.78-9.18 3.37-13.92a24.74 24.74 0 0 1 5.22-12.54c1.61-2 3.43-3.87 4.9-6a32.75 32.75 0 0 0 3.57-6.68 42 42 0 0 0 2.13-7.45c.44-2.31.69-4.79 2-6.81 1.22-1.87 3.16-3.09 4.69-4.69a11.71 11.71 0 0 0 3.23-5.95c.43-2.58-.43-4.93-1.51-7.22s-1.7-4.5-.64-6.77c.93-2 2.87-3.21 3.94-5.09 1.19-2.08 1.5-4.51 2-6.81a52.33 52.33 0 0 1 5.45-14.06 86.08 86.08 0 0 1 18.52-22.37 80.62 80.62 0 0 1 25-15.56c9.67-3.62 20.13-4 30.34-3.8a188.62 188.62 0 0 1 33.09 3.48c4.07.8 9.25 2.11 11.95-2.08 1.25-1.94 1.8-4.32 2.58-6.46a68.44 68.44 0 0 1 3.08-7.15 63.84 63.84 0 0 1 8.18-12.78c3-3.58 6.83-6.63 11.45-7.81 10.16-2.58 19.54 4.16 29.49 4.79a21 21 0 0 0 7.68-.88c2.46-.79 4.64-2 7.31-1.57a19.61 19.61 0 0 1 6.83 3 47.28 47.28 0 0 1 5.73 4.13c7.29 6.12 13 14 18.6 21.64a289.89 289.89 0 0 1 17.73 27c2.73 4.7 5.32 9.49 7.71 14.38a158.34 158.34 0 0 0 7.38 14.08c5.37 8.65 12.31 16.4 16.54 25.73 2.15 4.73 3.61 9.74 5.71 14.5s4.81 9.1 6.65 13.87a27.68 27.68 0 0 1 1.59 15 39.35 39.35 0 0 1-5.85 13.64c-5.35 8.47-12.37 15.73-19.45 22.77-15.52 15.42-31.89 30-48 44.72q-12.52 11.26-24.94 22.72c-7.92 7.28-15.84 14.58-24.28 21.25a201.36 201.36 0 0 1-26.16 17.29 194.7 194.7 0 0 0-26.14 17.3c-8.37 6.68-16.15 14.06-24.25 21.06s-16.31 13.72-25 19.92a226.88 226.88 0 0 1-53.75 28.64c-10.29 3.77-20.83 6.84-31.39 9.77-10.34 2.88-20.87 5.32-31.6 6.15a94.83 94.83 0 0 1-32.11-2.84 40.89 40.89 0 0 1-13.37-5.85 28.25 28.25 0 0 1-8.41-10.42 84.94 84.94 0 0 1-8.85-29.59 72.64 72.64 0 0 1 3.77-31c6.3-18.15 18.17-33.77 31.32-47.52 7.24-7.56 14.96-14.62 22.73-21.62z" fill="#030609"/><path d="M23.59 356.71c17 4.32 34.95 3.77 52 .2s33.54-9.6 49.35-16.86a333.56 333.56 0 0 0 45.43-25.62 529.13 529.13 0 0 0 42.38-31.71c3.47-2.85 6.93-5.71 10.34-8.63 2.92-2.5 5.76-5.27 9.35-6.78 6.73-2.84 14.16.25 18.42 5.83a28.43 28.43 0 0 1 3.06 5.15 29.42 29.42 0 0 0-13.42 3.61 36.21 36.21 0 0 0-10 8.65c-3.1 3.73-5.57 7.91-8.29 11.92a106.21 106.21 0 0 1-9.07 11.53 142.53 142.53 0 0 1-21.72 19.11 260.14 260.14 0 0 1-25 16.08c-17.35 9.86-35.65 17.92-54.18 25.27-4.79 1.91-9.61 3.74-14.42 5.59-4.54 1.74-9.13 3.57-14 4-9.85.82-19.32-2.83-28.46-6a284.6 284.6 0 0 0-29.29-8.69c-4.46-1-9-2.23-12.83-4.86a18 18 0 0 1-7-9.71 26.66 26.66 0 0 1-1-7.05 53.91 53.91 0 0 0 18.35 8.97zM351.52 148.39c9.33-7.76 18.91-15.49 26.27-25.25a69.9 69.9 0 0 0 5.86-9.14c4 7.2 7.76 15.9 4.63 24.14-1.48 3.91-4.69 6.75-5.75 10.87a109 109 0 0 1-3.86 13c-5.88 15-16.47 27.63-28.62 38a240.89 240.89 0 0 1-24.62 17.95q4.86-14.49 9.69-29c1.63-4.84 3.36-9.63 4.92-14.49 1.5-4.64 2.47-9.44 4-14.07s3.78-8.92 7.48-12.01z" fill="#fcee69"/><path d="M168.67 46.01c11.75-3.49 24.8-.17 34.36 7.26a44.62 44.62 0 0 1 8 8.11c-6 1.12-11.26 4.8-15.64 9a55.47 55.47 0 0 0-11.49 15.36 34.12 34.12 0 0 0-1.95 4.63 18.32 18.32 0 0 1-1.75 4.55c-1.46 2.18-4.1 1.74-6.31 1.25-1.66-.38-3.31-.79-5-1.11s-3.53-.47-5.29-.76c-3.55-.58-7-1.45-10.62-1.76a46.59 46.59 0 0 0-22.36 3.38c.52-8.73 3.92-17 8.45-24.42a66.9 66.9 0 0 1 16.64-18.63 41.42 41.42 0 0 1 12.96-6.86z" fill="#f20c49"/><path d="M259.6 10.59a15.57 15.57 0 0 1 7.06-4.42 17.58 17.58 0 0 1 9 .37c3.13.82 6.11 2.11 9.2 3.07 1.54.47 3.11.78 4.65 1.22a4.94 4.94 0 0 1 3.18 2c1.32 2.31-1.15 4.63-1.71 6.77a9.52 9.52 0 0 0 .38 4.52c.34 1.49.59 3 .81 4.52.49 3.22.79 6.47 1.14 9.71.17 1.61.37 3.21.54 4.81.08.77.13 1.55.22 2.31a8 8 0 0 1 .17 1.46.7.7 0 0 1-1.07.62c-.45-.26-.55-1-.72-1.48-.65-1.67-1.51-3.26-2.27-4.88q-2.43-5.2-4.84-10.42c-.47 3.05.42 6.06 1.4 8.92.84 2.48 1.87 5 1.55 7.71a6.89 6.89 0 0 1-4.48 5.59 7.16 7.16 0 0 1-6.98-1.34c-2.37-1.82-4.25-4.32-7-5.58.91 1.55 1.77 3.13 2.68 4.67s2 2.75 2.84 4.25a2.21 2.21 0 0 1 .32 2c-.32.62-1.11.83-1.68 1.13a21.17 21.17 0 0 0-4 2.94c-2.28 2-4.57 4.11-7.47 5.11-1.27.43-3 .85-4.14-.17s-.93-2.36-.88-3.55a28.76 28.76 0 0 0 0-5.33 18.54 18.54 0 0 0-1.47-5 22.62 22.62 0 0 0-5.57-7.31 31 31 0 0 0-3.95-2.86c-1.06-.69-2-1.54-2-2.91 0-1.61 1.08-3.09 1.66-4.54.67-1.65 1.32-3.3 2-4.93 2.9-6.87 6.28-13.61 11.43-18.98z" fill="#fcee69"/><path d="M189.22 103.76a120.49 120.49 0 0 1 10.85-16.4 72.14 72.14 0 0 1 12.81-13.37 40.35 40.35 0 0 1 16.73-7.62c6.72-1.31 13.62-.58 20.27.83s13.14 3.21 19.88 3.8c6.17.54 12.84.46 18.57-2.2 12.4-5.76 9.22-21.13 7.57-31.93-.52-3.37-1.23-6.73-1.64-10.12a31.22 31.22 0 0 1 .42-9.45c.4-2.15 1.13-4.82 3.57-5.43 2.12-.53 2.91 1.87 3.38 3.46.88 3 2 5.94 3 8.94a97.89 97.89 0 0 1 2.46 10c1.3 6.58 2.24 13.43 1 20.1a27.07 27.07 0 0 1-7.79 14.81 32.41 32.41 0 0 1-15.8 7.75 62 62 0 0 1-20.26.38 68.78 68.78 0 0 1-10-1.86 93.37 93.37 0 0 0-9.71-2.62 35.48 35.48 0 0 0-18.89 1.88 43.55 43.55 0 0 0-14.69 10.32 103 103 0 0 0-11.68 15.33c-.93 1.42-1.86 2.83-2.73 4.27a21.78 21.78 0 0 1-2.57 3.86c-1.66 1.78-4.38 2.55-6.31.72-2.05-2 .6-3.7 1.56-5.45z" fill="#f20c49"/><path d="M185.27 187.8q4.89-5.44 10.07-10.63c3.28-3.3 6.76-6.41 9.88-9.87a47.18 47.18 0 0 0 7.43-10.82 58.72 58.72 0 0 0 4.16-12.83c1.77-7.64 5.2-15 11-20.41 6.22-5.86 14.36-8.91 21.69-13.07a55.5 55.5 0 0 0 10.46-7.63 13.33 13.33 0 0 1 4.82-3.39 34.32 34.32 0 0 1 6.78-1.06c9.65-1.18 19.19-3.08 28.86-4.08 7.71-.79 16.28-1.1 23 3.32 6.59 4.32 9.36 12.24 9.61 19.82.17 4.76-.64 9.47-1.33 14.15-.73 4.92-1.42 9.83-2.14 14.74l-4.26 29.36q-.54 3.65-1.06 7.29c1.71-.15 2.8-1.57 4-2.63a5.15 5.15 0 0 1 4.73-1.42c-11.9 11.13-25.64 20-38.87 29.41-12.55 8.94-24.89 18.56-34.4 30.81a88.64 88.64 0 0 0-13 23.08c.37-6.1 3.16-11.71 6.33-16.83a123.33 123.33 0 0 1 11.22-15.63c8.23-9.54 18.24-17.32 28.55-24.46 5.47-3.78 10.93-7.58 16.7-10.88 2.47-1.42 5.13-2.68 7.15-4.74s2.81-4.94 3.34-7.79c2.51-13.51 5.62-26.92 7.63-40.52a164 164 0 0 0 1.74-20.4c.13-5.4.08-11.35-3.05-16-3-4.41-8.33-6.09-13.35-6.78-6.77-.92-13.62-.26-20.35.66s-13.51 2-20.29 2.84a20.49 20.49 0 0 0-8.47 2.61c-2.71 1.69-5 4-7.59 5.85-10 7-22.64 10.27-30.08 20.48a34.62 34.62 0 0 0-4.44 8.34c-1.13 3.05-1.82 6.24-2.68 9.38-1.62 5.88-3.66 11.77-7.21 16.79s-8.35 9-12.77 13.26a100.18 100.18 0 0 0-12.93 14.45 55.34 55.34 0 0 0-4.68 8.08 10.62 10.62 0 0 1-.14-7.35c.82-2.16 2.45-3.83 3.94-5.5z" fill="#fcee69"/><path d="M175.19 197.88c2.19 2.91 4.39 5.81 6.47 8.8s3.74 5.88 5.63 8.8c3.07 4.73 6.7 9.89 12.24 11.85 6.35 2.25 12.65-1.47 17.36-5.48 5.13-4.37 9.35-9.66 13.54-14.92 8.86-11.12 17.89-22.12 27.69-32.44a257.15 257.15 0 0 1 30.68-27.84c10.2-7.75 21.49-14.29 34-17.39 1.38-.34 1.5 1.07 2 2-7.53 3.4-15.23 6.5-22.38 10.69a152.32 152.32 0 0 0-20 14.23c-12.59 10.47-23.74 22.47-34.44 34.86-5.56 6.43-10.79 13.15-16.07 19.82-4.8 6-9.76 12.18-16.18 16.6a23.48 23.48 0 0 1-10.37 4.35 15.65 15.65 0 0 1-10.44-2.73 33 33 0 0 1-7.92-8.12c-2.53-3.43-4.8-7-7.07-10.63s-4.45-7-7-10.3c-2.2-2.88-4.62-5.74-7.75-7.63-6.9-4.17-14.63-1.09-21.29 1.9-1.51.68-3.3 1.06-4.67-.14 5.25-4.44 11.79-8.54 19-7.77s12.85 5.95 16.97 11.49z" fill="#f20c49"/><path d="M191.45 193.82c-.17 5.06-.47 11 3.25 15s10.05 4.63 15.16 3.38c5.8-1.43 10.81-5.16 14.82-9.48 4.64-5 8.73-10.59 13-15.89a327.31 327.31 0 0 1 27.22-30.08 214.63 214.63 0 0 1 30.89-25.1 157.14 157.14 0 0 1 17.76-10.11c1.5-.72 3-1.35 4.54-2.09a41.74 41.74 0 0 1 4-2.18c2.89-1.06 4.05 2.69 3.27 4.9s-3.62 2.88-5.74 3.41a60.34 60.34 0 0 0-9.64 3.24 112.8 112.8 0 0 0-17.24 9.72 200.29 200.29 0 0 0-30.24 25.2 386.79 386.79 0 0 0-27.22 30.43c-4.3 5.31-8.39 10.79-12.84 16-3.87 4.51-8 9.08-13.24 12-2.64 1.47-5.65 2.31-8.58 1.12s-4.88-3.7-6.82-6c-3.65-4.27-7.62-9.44-6.47-15.44a20 20 0 0 1 4.12-8.03zM92.07 154.89c1.39 5.68 2.3 11.93 6.4 16.41a35.6 35.6 0 0 0 7.26 5.54c3 1.95 6.09 3.85 9.15 5.74q9.09 5.58 18.19 11.07c6 3.6 11.92 7.35 18 10.72 2.37 1.3 5.12 2.45 6.89 4.58a4.65 4.65 0 0 1-.69 6.59c-2.4 1.83-5.44.2-7.74-1-3.09-1.56-6.2-3.1-9.3-4.65-11.85-5.91-23.67-12-34.28-20-4.91-3.69-9.78-7.74-12.93-13.12-3.06-5.23-4.46-11.68-2.79-17.61a18.25 18.25 0 0 1 1.84-4.27zM75.74 208.04c-1.1 2.16-2 4.92-.7 7.2 1 1.85 3.15 2.6 5.06 3.2 5.6 1.74 11.16 3.56 16.74 5.33s11.23 3.51 16.88 4.88a113 113 0 0 0 17.07 2.45c1.9.15 3.91.73 4.48 2.78a4.28 4.28 0 0 1-2.69 5 18.07 18.07 0 0 1-3.4.88 33.57 33.57 0 0 1-4.36.71 35.93 35.93 0 0 1-8.33-.79 143.81 143.81 0 0 1-32.12-9.73c-3-1.27-6-2.56-8.85-4-2.23-1.11-4.48-2.48-5.64-4.78-2.59-5.13 1.61-10.52 5.86-13.13zM193.61 150.65a5.53 5.53 0 0 1-4 3.56 10.19 10.19 0 0 1-3.68-.36c-1.18-.24-2.36-.48-3.52-.8-5-1.37-9.94-3-15-4.13-10.06-2.22-20.31-3.31-30.53-4.55a24.22 24.22 0 0 1-7.65-1.76 16.28 16.28 0 0 1-5.63-4.77 82 82 0 0 1 30.81-1.86c10.18 1.29 20 4.35 29.56 7.87a77.12 77.12 0 0 1 7.21 2.85c1.49.77 3.18 2.02 2.43 3.95z" fill="#2ef2aa"/><path d="M170.2 176.65c-.48 4.49-7.17 3-10.11 2.87-4.87-.22-9.76-.26-14.63-.36-5-.1-10.08-.25-15.13-.21-4.79 0-9.67.56-14.41-.44a21.37 21.37 0 0 1-11.56-6.94c18.66-4.94 38.14-3.36 57.15-1.79 1.34.11 2.68.2 4 .33a5.92 5.92 0 0 1 2.9.84c1.79 1.25 1.99 3.7 1.79 5.7z" fill="#2ef2aa"/><path d="M20.9 304.41c-.95 4.1-.27 9 3.7 11.24 2.26 1.28 4.89 1.6 7.42 1.94a45.37 45.37 0 0 0 9 .61 70.81 70.81 0 0 0 8.69-1.39c2.91-.56 5.8-1.16 8.68-1.85a167.06 167.06 0 0 0 16.85-5 160.18 160.18 0 0 0 30.69-14.75 166.21 166.21 0 0 0 14.25-9.91 134.06 134.06 0 0 0 13.18-11.21c1.93-1.95 3.73-4.37 2.41-7.18a25.65 25.65 0 0 0-2.46-3.68c-1-1.35-1.9-2.74-2.83-4.12-3.79-5.62-7.46-11.31-11.21-16.95a45.84 45.84 0 0 1 12 12.08c1.86 2.59 3.55 5.31 5.38 7.93 1.51 2.14 3.36 4.4 3.42 7.15s-1.83 5-3.64 6.85c-2.21 2.26-4.62 4.31-7 6.36a169.29 169.29 0 0 1-15.35 11.7 169.61 169.61 0 0 1-32.88 17.08c-6.08 2.37-12.3 4.4-18.59 6.16a127 127 0 0 1-19.12 4.18 40.72 40.72 0 0 1-18.27-1.76 12.44 12.44 0 0 1-6.39-4.41 7.82 7.82 0 0 1-.46-7.72 12.31 12.31 0 0 1 2.53-3.35z" fill="#f20c49"/><path d="M113.57 100.74c1.45-1 3 1.23 3.8 2.14a44.31 44.31 0 0 0 4.83 4.56 81.76 81.76 0 0 0 11.38 7.7c4.06 2.3 8.27 4.33 12.48 6.35s8.34 4.21 12.69 5.9c3.74 1.45 7.87 2.9 10.08 6.5a9.53 9.53 0 0 1-2.6 1.23 14.57 14.57 0 0 1-4.11-.35 75.84 75.84 0 0 1-7.91-1.45 73.8 73.8 0 0 1-14.74-5.34 96.55 96.55 0 0 1-13.26-7.92c-3.94-2.76-8.06-5.52-11.26-9.17-2.22-2.54-5.03-7.55-1.38-10.15z" fill="#2ef2aa"/><path d="M204.51 119.98c-.79 3.88-4.91 3.08-7.74 2.27-4.83-1.38-9.67-2.68-14.6-3.62-10.13-1.93-20.38-2.72-30.63-3.63-5.82-.51-11.57-1.61-17.34-2.51 19.46-4.86 40-3.65 59.29 1.16 2.58.65 5.21 1.19 7.72 2.08 1.94.69 3.78 1.92 3.3 4.25zM106.38 127.1a2.37 2.37 0 0 1 2.44-.33c.76.49.89 1.54 1.19 2.32a15.94 15.94 0 0 0 3.43 4.87 56.11 56.11 0 0 0 10.26 8.43c7.91 5.29 16.27 9.92 24.13 15.3a20.23 20.23 0 0 0 2.48 1.61c.8.38 1.72.47 2.5.9 1.68.95 1 3.08 0 4.29-1.29 1.52-3.25 1.07-5 1-2.16-.13-4.29.16-6.34-.71-3.83-1.62-6.91-4.56-10.2-7-3.75-2.8-7.57-5.51-11.14-8.55a77.82 77.82 0 0 1-10.56-10.76c-1.94-2.51-7.73-8.71-3.19-11.37zM129.07 100.34c6.3-4.12 14.09-5 21.46-5a60.35 60.35 0 0 1 23.81 4.31c3 1.27 6.45 2.76 8.38 5.55.8 1.16 1.08 3-.68 3.44-1.36.3-2.79-.34-4.11-.57-4.26-.74-8.57-1.08-12.79-2.09s-8.12-2.41-12.3-3.1c-9.15-1.5-18.6-.15-27.28 2.93a8.12 8.12 0 0 1 3.51-5.47zM77.36 187.65c3.88 5.82 7.89 11.65 13 16.46a69.54 69.54 0 0 0 8.33 6.57c1.54 1.06 3.08 2.12 4.71 3.05a34.93 34.93 0 0 1 3.78 2c2.33 1.73 1.44 5.07-.84 6.42-2.67 1.58-5.82-.5-8.12-1.83a62 62 0 0 1-15.77-12.59c-2.43-2.78-4.88-5.73-6.24-9.21a12.57 12.57 0 0 1 1.15-10.87zM48.49 309.08c16.19-2.66 31.49-9.13 46.21-16.15 2.12-1 4.15-2.17 6.23-3.27s4.29-1.61 6.44-.67a167.34 167.34 0 0 1-35.19 17.22c-12.5 4.45-25.81 9.12-39.29 7.56-2.89-.34-5.94-1.36-7.55-4-1.76-2.86-1.47-6.43-1-9.6 2 3.79 5 7.22 9.1 8.73 4.82 1.83 10.1.99 15.05.18z" fill="#2ef2aa"/><path d="M251.27 56.43c.55 1.68 1.52 3.72.64 5.46-.7 1.35-2.32 1.71-3.71 1.78a5.61 5.61 0 0 1-4.13-1.18c-1.42-1.29-1.49-3.42-2-5.15-2-6.76-9.67-9.82-15.66-12.06-4.8-1.78-9.74-3.13-14.49-5.05 8 1.24 16.13 2 24.05 3.82a24 24 0 0 1 9.63 4.08 17.36 17.36 0 0 1 5.67 8.3zM217.24 95.65a93.53 93.53 0 0 1 11.83-8c1.89-1 4.08-2 6.2-1a7.38 7.38 0 0 1 3.71 4.32c1.51 4.48-3.62 7.57-6.69 9.76a60.75 60.75 0 0 1-5.86 3.83 25.79 25.79 0 0 1-2.9 1.4c-.93.37-2.24 1-3.25.66a9 9 0 0 1-2.74-2.37 7.51 7.51 0 0 1-1.9-2.9 5.14 5.14 0 0 1 1.6-5.7z" fill="#fcee69"/><path d="M121.83 204.5c-12.29 7.15-19.37 6.5-27.79-2.36 9.47-3.31 18.74-7.49 27.79 2.36z" fill="#2ef2aa"/><path d="M82.16 231.65c-1.12 4.7-4.31 10.44.18 14.37a9.5 9.5 0 0 0 7.5 2.43c2.76-.42 4.88-2.45 6.83-4.29 2.46-2.33 5-4.74 8.16-6.07-2.75 5.95-6.82 12.32-13.67 13.85a12.7 12.7 0 0 1-10.73-2.29 11.82 11.82 0 0 1-4.29-9.26c.08-3.84 2.68-7.03 6.02-8.74z" fill="#f20c49"/><path d="M367.75 125.35a327.67 327.67 0 0 0-6.35-47.7c6.67 15.35 10.13 31.07 6.35 47.7z" fill="#fcee69"/><path d="M185.07 123.43a55.67 55.67 0 0 1-4.26 8.62c-.78 1.29-1.53 2.61-2.41 3.84a3.56 3.56 0 0 1-2.77 1.89c-2.09 0-3.37-2.29-3.25-4.2.17-2.59 2.45-4.89 4.25-6.53 2.24-2.05 5.22-4.16 8.44-3.62z" fill="#f20c49"/><path d="M283.46 104.95c-9.73 5.45-17.46 9.08-27.46 10.93 11.73-9.98 11.73-9.98 27.46-10.93zM341.77 43.65c-10.31-4.06-18.84-1.39-27.33-1.62 10.31-6.23 19.52-6.04 27.33 1.62z" fill="#fcee69"/><path d="M162.37 152.55a3.12 3.12 0 0 1 4.78-.93c1.71 1.73-.4 4.06-1.4 5.55-1.45 2.18-2.48 4.64-4.29 6.57a16.06 16.06 0 0 1-6.45 4c2.44-5.09 4.82-10.16 7.36-15.19zM196.69 150.9c.22-5.17-5.1-7.37-8.72-9.76 4.33 0 9.61 1.13 11.46 5.56 1.72 4.11.4 9.73-3.52 12.13-2.85 1.74-6.43 1.44-9.51.52 2.32-1.22 5-1.57 7.24-3a6.82 6.82 0 0 0 3.05-5.45zM208.19 119.82c.36-5.7-5.78-7.78-10-9.72 4.44-.27 10.19.09 12.12 4.88 1.6 4 .64 9.78-3.15 12.25-3 2-7 1.42-10.39.89 4.13-1.98 11.07-2.47 11.42-8.3zM166.85 164.81c4.92 1.09 10.38 3.78 10.85 9.41a9.59 9.59 0 0 1-2.58 7.74c-2.24 2.12-5.56 2.23-8.43 1.75 2.88-1.68 6.84-3.5 7.39-7.21.34-2.25-.94-4.32-2.22-6a53.69 53.69 0 0 0-5.01-5.69zM127.82 207.65l-15 18.1c2.64-10.35 6.66-15.27 15-18.1zM162.63 212.43c.22-2.38-1.23-4.42-2.83-6-1.76-1.77-3.74-3.4-4.94-5.63 4.86 1.49 10.58 4.3 10.42 10.2-.08 3-1.17 6.32-3.57 8.25s-6 1.53-8.85.42c2.16-1 4.61-1.21 6.67-2.41a6.22 6.22 0 0 0 3.1-4.83z" fill="#f20c49"/><path d="M242.65 123.28c-6.11 6.22-11.51 13.08-17.38 19.52 2.3-9.64 8.33-15.94 17.38-19.52z" fill="#fcee69"/><path d="M129.62 226.51c2.57-.08 5.37 0 7.65 1.36a7.76 7.76 0 0 1 3.48 6.38 9 9 0 0 1-2.23 6.89c-1.88 1.9-4.67 2.44-7.24 2.55a43.93 43.93 0 0 0 4.63-4.52c1.21-1.42 2.47-3.15 2.17-5.12-.26-1.74-1.63-3-2.94-4.08a39.91 39.91 0 0 0-5.52-3.46z" fill="#f20c49"/><path d="M124.3 80.12c-.87 6-1.74 11.94-2.94 20.2-4.38-9.09.28-14.4 2.94-20.2z" fill="#2ef2aa"/><path d="M271.98 233.48c6.37 3 9.67 6.86 12.71 13.64-6.26-3.73-9.99-7.14-12.71-13.64zM297.69 235.08c-4.42-2.85-8.9-5.59-11.4-13.44 5.95 4.85 10.2 8.01 11.4 13.44zM270.81 260.65c-6.07-2.05-8.87-5.84-11.33-10 4.96 1.39 8.85 4 11.33 10z" fill="#f20c49"/><path d="M176.18 324.65c.91 5.94 0 9.66-1.78 15-3.02-6-2.2-9.72 1.78-15zM195.98 322.3c-1.43-4.93-.15-8.59 1.26-13 3.76 5.01 2.93 8.72-1.26 13zM131.15 351.29c-.94 5 .06 8.83-5.49 13 .82-5.36-.59-9.59 5.49-13zM97.86 365.24c.32 4.72.65 8.48-4 11.44-.59-4.67-.6-8.33 4-11.44zM151.07 340.96c.49 3.71.66 7.3-1.93 11.44-3.18-5.47-.07-8.39 1.93-11.44zM350.99 159.85c-3.35 14.44-6.16 29.05-13.33 42 3.53-14.47 6.08-29.07 13.33-42zM360.93 183.37c-4.53-10.59-4.36-21.29-.21-32.31.08 11.97.14 22.14.21 32.31zM373.34 153.26c-4-4.88-1.23-9.55 0-14.22-.17 4.51 3.39 9.21 0 14.22zM224 94.27c2.59 0 4.39 2.59 4.1 5a5 5 0 0 1-5.16 4.17c-2.4-.11-3.52-2.39-3.41-4.56a4.63 4.63 0 0 1 4.47-4.61z" fill="#030609"/><path d="M350.91 137.39c-.94-16.08-4.16-54.1-7.43-69.81 6.68 15.36 11.2 53.19 7.43 69.81z" fill="#fcee69"/><path d="M119.61 166.91c-11.34-7.21-19.08-13.58-18.4-24.89 4.33 8.2 15.97 12.54 18.4 24.89z" fill="#2ef2aa"/><path d="M312.94 224.1c-4-3.46-8-6.81-9.4-14.94 5.21 5.66 8.97 9.35 9.4 14.94z" fill="#f20c49"/></svg>