<?xml version="1.0" ?><!DOCTYPE svg  PUBLIC '-//W3C//DTD SVG 1.1//EN'  'http://www.w3.org/Graphics/SVG/1.1/DTD/svg11.dtd'><svg height="30px" style="enable-background:new 0 0 30 30;" version="1.1" viewBox="0 0 30 30" width="30px" xml:space="preserve" xmlns="http://www.w3.org/2000/svg" xmlns:xlink="http://www.w3.org/1999/xlink"><g id="explode"><path d="M29.442,21.905l-6.272-4.826l4.981-2.56c0.205-0.105,0.312-0.338,0.258-0.562   c-0.055-0.224-0.255-0.382-0.485-0.383l-6.122-0.011l7.664-10.548c0.147-0.203,0.122-0.482-0.059-0.655   c-0.183-0.174-0.464-0.187-0.657-0.029l-9.249,7.381l-0.449-8.378c-0.013-0.237-0.19-0.433-0.426-0.468   c-0.229-0.031-0.462,0.101-0.543,0.324l-2.789,7.705l-2.657-2.742c-0.138-0.142-0.348-0.19-0.533-0.121   c-0.186,0.069-0.313,0.241-0.325,0.439l-0.222,3.754L1.075,5.293C0.85,5.188,0.58,5.265,0.443,5.473   C0.307,5.683,0.346,5.96,0.535,6.124l8.709,7.534l-5.875,0.915c-0.222,0.035-0.393,0.212-0.42,0.435   c-0.026,0.222,0.098,0.436,0.305,0.521l5.199,2.159l-7.032,6.827c-0.174,0.168-0.202,0.438-0.066,0.638S1.75,25.43,1.972,25.33   l8.309-3.668l-1.274,5.223c-0.052,0.214,0.042,0.438,0.233,0.55c0.19,0.11,0.432,0.084,0.593-0.065l4.12-3.827l1.832,5.315   c0.07,0.203,0.26,0.337,0.472,0.337c0.015,0,0.028-0.001,0.044-0.002c0.229-0.02,0.414-0.192,0.45-0.419l1.022-6.355l3.938,3.292   c0.092,0.077,0.206,0.116,0.32,0.116c0.009,0,0.015,0,0.02,0c0.276,0,0.5-0.224,0.5-0.5c0-0.09-0.023-0.174-0.064-0.246   l-0.962-4.017l7.501,1.726c0.234,0.055,0.464-0.061,0.564-0.273S29.629,22.049,29.442,21.905z M20.963,19.908   c-0.168-0.04-0.345,0.012-0.468,0.136c-0.121,0.122-0.171,0.3-0.131,0.468l0.829,3.462l-3.454-2.887   c-0.138-0.115-0.327-0.146-0.495-0.085c-0.169,0.063-0.291,0.212-0.318,0.39l-0.846,5.255l-1.433-4.156   c-0.055-0.16-0.188-0.281-0.352-0.322c-0.04-0.01-0.081-0.015-0.121-0.015c-0.125,0-0.247,0.047-0.34,0.134l-3.461,3.215   l1.119-4.589c0.045-0.185-0.019-0.379-0.165-0.502c-0.145-0.12-0.348-0.151-0.523-0.073l-6.686,2.951l5.576-5.413   c0.121-0.117,0.174-0.287,0.143-0.452c-0.032-0.165-0.144-0.304-0.299-0.368L5.28,15.287l5.185-0.807   c0.193-0.03,0.35-0.169,0.404-0.356c0.054-0.187-0.006-0.388-0.153-0.516L3.94,7.747l7.86,3.7c0.149,0.07,0.324,0.063,0.468-0.023   c0.143-0.084,0.234-0.234,0.244-0.4l0.199-3.357l2.422,2.5c0.12,0.123,0.293,0.178,0.464,0.141   c0.168-0.036,0.307-0.156,0.365-0.318l2.224-6.143l0.369,6.89c0.01,0.187,0.123,0.353,0.294,0.429   c0.17,0.076,0.371,0.052,0.517-0.065l7.118-5.681l-6.066,8.35c-0.11,0.152-0.127,0.353-0.041,0.521   c0.085,0.167,0.257,0.273,0.444,0.273l5.043,0.009l-3.852,1.98c-0.152,0.078-0.254,0.229-0.27,0.398   c-0.016,0.171,0.058,0.338,0.193,0.442l5.081,3.909L20.963,19.908z" style="fill:#FFFFFF;"/></g><g id="Warstwa_1"/></svg>